{
	"asset":{
		"generator":"Khronos glTF Blender I/O v4.1.63",
		"version":"2.0"
	},
	"scene":0,
	"scenes":[
		{
			"name":"Scene",
			"nodes":[
				0,
				1
			]
		}
	],
	"nodes":[
		{
			"mesh":0,
			"name":"Plane"
		},
		{
			"mesh":1,
			"name":"table"
		}
	],
	"materials":[
		{
			"doubleSided":true,
			"name":"mat_prototype_dark",
			"normalTexture":{
				"index":0
			},
			"pbrMetallicRoughness":{
				"baseColorTexture":{
					"index":1
				},
				"metallicFactor":0
			}
		},
		{
			"doubleSided":true,
			"name":"mat_wood",
			"normalTexture":{
				"index":2
			},
			"pbrMetallicRoughness":{
				"baseColorTexture":{
					"index":3
				},
				"metallicRoughnessTexture":{
					"index":4
				}
			}
		}
	],
	"meshes":[
		{
			"name":"Plane",
			"primitives":[
				{
					"attributes":{
						"POSITION":0,
						"NORMAL":1,
						"TEXCOORD_0":2
					},
					"indices":3,
					"material":0
				}
			]
		},
		{
			"name":"Cube.003",
			"primitives":[
				{
					"attributes":{
						"POSITION":4,
						"NORMAL":5,
						"TEXCOORD_0":6
					},
					"indices":7,
					"material":1
				}
			]
		}
	],
	"textures":[
		{
			"sampler":0,
			"source":0
		},
		{
			"sampler":0,
			"source":1
		},
		{
			"sampler":0,
			"source":2
		},
		{
			"sampler":0,
			"source":3
		},
		{
			"sampler":0,
			"source":4
		}
	],
	"images":[
		{
			"mimeType":"image/png",
			"name":"texture_06_normal",
			"uri":"texture_06_normal.png"
		},
		{
			"mimeType":"image/png",
			"name":"texture_06",
			"uri":"texture_06.png"
		},
		{
			"mimeType":"image/png",
			"name":"wood_planks_nor_gl_2k",
			"uri":"wood_planks_nor_gl_2k.png"
		},
		{
			"mimeType":"image/png",
			"name":"wood_planks_diff_2k",
			"uri":"wood_planks_diff_2k.png"
		},
		{
			"mimeType":"image/png",
			"name":"wood_planks_arm_2k",
			"uri":"wood_planks_arm_2k.png"
		}
	],
	"accessors":[
		{
			"bufferView":0,
			"componentType":5126,
			"count":6136,
			"max":[
				11,
				7.5739641189575195,
				11
			],
			"min":[
				-11,
				-0.9109997153282166,
				-11
			],
			"type":"VEC3"
		},
		{
			"bufferView":1,
			"componentType":5126,
			"count":6136,
			"type":"VEC3"
		},
		{
			"bufferView":2,
			"componentType":5126,
			"count":6136,
			"type":"VEC2"
		},
		{
			"bufferView":3,
			"componentType":5123,
			"count":9228,
			"type":"SCALAR"
		},
		{
			"bufferView":4,
			"componentType":5126,
			"count":208,
			"max":[
				1.2462823390960693,
				1.2365806102752686,
				0.4714275598526001
			],
			"min":[
				-1.2462823390960693,
				0.0026323667261749506,
				-0.574267566204071
			],
			"type":"VEC3"
		},
		{
			"bufferView":5,
			"componentType":5126,
			"count":208,
			"type":"VEC3"
		},
		{
			"bufferView":6,
			"componentType":5126,
			"count":208,
			"type":"VEC2"
		},
		{
			"bufferView":7,
			"componentType":5123,
			"count":492,
			"type":"SCALAR"
		}
	],
	"bufferViews":[
		{
			"buffer":0,
			"byteLength":73632,
			"byteOffset":0,
			"target":34962
		},
		{
			"buffer":0,
			"byteLength":73632,
			"byteOffset":73632,
			"target":34962
		},
		{
			"buffer":0,
			"byteLength":49088,
			"byteOffset":147264,
			"target":34962
		},
		{
			"buffer":0,
			"byteLength":18456,
			"byteOffset":196352,
			"target":34963
		},
		{
			"buffer":0,
			"byteLength":2496,
			"byteOffset":214808,
			"target":34962
		},
		{
			"buffer":0,
			"byteLength":2496,
			"byteOffset":217304,
			"target":34962
		},
		{
			"buffer":0,
			"byteLength":1664,
			"byteOffset":219800,
			"target":34962
		},
		{
			"buffer":0,
			"byteLength":984,
			"byteOffset":221464,
			"target":34963
		}
	],
	"samplers":[
		{
			"magFilter":9729,
			"minFilter":9987
		}
	],
	"buffers":[
		{
			"byteLength":222448,
			"uri":"testlevel.bin"
		}
	]
}
